<svg width="16" height="15" viewBox="0 0 16 15" fill="none" xmlns="http://www.w3.org/2000/svg">
<path fill-rule="evenodd" clip-rule="evenodd" d="M8.92476 13.812C10.6828 12.6652 14.3333 9.88405 14.3333 6.5625C14.3333 3.28331 11.4978 0.625 8 0.625C4.5022 0.625 1.66667 3.28331 1.66667 6.5625C1.66667 9.88405 5.31722 12.6652 7.07524 13.812C7.64229 14.1819 8.35771 14.1819 8.92476 13.812ZM8 8.43749C9.10457 8.43749 10 7.59803 10 6.56249C10 5.52696 9.10457 4.68749 8 4.68749C6.89543 4.68749 6 5.52696 6 6.56249C6 7.59803 6.89543 8.43749 8 8.43749Z" fill="#898989"/>
</svg>
