<svg width="46" height="19" viewBox="0 0 46 19" fill="none" xmlns="http://www.w3.org/2000/svg">
<path d="M45.473 8.18447L45.4713 8.18306L36.0823 0.433945C35.3789 -0.146567 34.2412 -0.144407 33.5411 0.439012C32.841 1.02236 32.8437 1.96588 33.5471 2.54647L39.8509 7.74911H1.79687C0.804461 7.74911 0 8.41627 0 9.23932C0 10.0624 0.804461 10.7295 1.79687 10.7295H39.8508L33.5472 15.9322C32.8438 16.5128 32.8411 17.4563 33.5412 18.0396C34.2413 18.6231 35.3791 18.6251 36.0824 18.0447L45.4714 10.2956L45.473 10.2942C46.1768 9.71164 46.1745 8.76506 45.473 8.18447Z" fill="#282E52"/>
</svg>
