
<svg width="17" height="17" viewBox="0 0 17 17" fill="none" xmlns="http://www.w3.org/2000/svg">
<path d="M11.2689 8.58716L17 12.2103V4.81104L11.2689 8.58716Z" fill="#898989"/>
<path d="M0 4.81104V12.2103L5.73112 8.58716L0 4.81104Z" fill="#898989"/>
<path d="M15.9375 2.65625H1.0625C0.532313 2.65625 0.111563 3.0515 0.0318756 3.56044L8.5 9.13963L16.9681 3.56044C16.8884 3.0515 16.4677 2.65625 15.9375 2.65625Z" fill="#898989"/>
<path d="M10.2956 9.22885L8.79219 10.2191C8.70294 10.2775 8.602 10.3062 8.5 10.3062C8.398 10.3062 8.29706 10.2775 8.20781 10.2191L6.70438 9.22778L0.0340004 13.447C0.115813 13.9517 0.534438 14.3437 1.0625 14.3437H15.9375C16.4656 14.3437 16.8842 13.9517 16.966 13.447L10.2956 9.22885Z" fill="#898989"/>
</svg>
