<svg width="20" height="14" viewBox="0 0 20 14" fill="none" xmlns="http://www.w3.org/2000/svg">
<path d="M13.4307 8.59503L12.9152 9.10365C12.8123 9.20517 12.6762 9.2918 12.4969 9.32297C11.9095 9.42507 10.3499 9.47118 7.9755 7.90937C5.6011 6.34757 5.67118 5.32172 5.82641 4.93532C5.87379 4.81736 6.00549 4.72785 6.15983 4.66017L6.93308 4.32109C7.50878 4.06863 7.66435 3.557 7.28055 3.17832L5.82014 1.7374C5.48514 1.40687 4.83933 1.2806 4.28423 1.43708L3.62544 1.62279C3.12498 1.76387 2.71674 2.01707 2.47324 2.3374C2.2698 2.60503 2.11212 2.88686 2.09076 3.18575C2.02343 4.12766 2.33743 6.44826 6.26713 9.03309C10.1968 11.6179 13.7248 11.8244 15.1568 11.7802C15.6111 11.7661 16.0396 11.6624 16.4465 11.5286C16.9335 11.3684 17.3184 11.0999 17.5329 10.7707L17.8152 10.3374C18.0531 9.97224 17.8612 9.54744 17.3587 9.32709L15.168 8.36648C14.5923 8.11403 13.8145 8.21635 13.4307 8.59503Z" fill="#898989"/>
</svg>
