<svg width="18" height="21" viewBox="0 0 18 21" fill="none" xmlns="http://www.w3.org/2000/svg">
<path d="M8.62764 10.1158C10.0174 10.1158 11.2206 9.61734 12.204 8.63393C13.1871 7.65068 13.6857 6.44761 13.6857 5.05773C13.6857 3.66833 13.1873 2.4651 12.2038 1.48153C11.2204 0.498435 10.0172 0 8.62764 0C7.23775 0 6.03468 0.498435 5.05143 1.48169C4.06818 2.46494 3.56958 3.66817 3.56958 5.05773C3.56958 6.44761 4.06818 7.65084 5.05143 8.63409C6.035 9.61718 7.23824 10.1158 8.62764 10.1158ZM5.92173 2.35182C6.67619 1.59736 7.56123 1.23063 8.62764 1.23063C9.69389 1.23063 10.5791 1.59736 11.3337 2.35182C12.0882 3.10645 12.4551 3.99165 12.4551 5.05773C12.4551 6.12413 12.0882 7.00917 11.3337 7.76379C10.5791 8.51842 9.69389 8.88515 8.62764 8.88515C7.56155 8.88515 6.67651 8.51826 5.92173 7.76379C5.16711 7.00933 4.80021 6.12413 4.80021 5.05773C4.80021 3.99165 5.16711 3.10645 5.92173 2.35182Z" fill="black"/>
<path d="M17.4779 16.1479C17.4496 15.7387 17.3922 15.2924 17.3078 14.821C17.2226 14.3461 17.1128 13.8972 16.9814 13.4869C16.8456 13.0628 16.6612 12.644 16.4328 12.2426C16.1962 11.8261 15.9181 11.4633 15.606 11.1649C15.2796 10.8526 14.88 10.6015 14.418 10.4184C13.9575 10.2362 13.4472 10.144 12.9013 10.144C12.687 10.144 12.4796 10.2319 12.0793 10.4926C11.8328 10.6533 11.5446 10.8391 11.2229 11.0447C10.9478 11.22 10.5751 11.3842 10.1148 11.5329C9.66575 11.6782 9.20977 11.7519 8.75956 11.7519C8.30967 11.7519 7.85369 11.6782 7.40428 11.5329C6.94446 11.3844 6.57163 11.2201 6.29702 11.0449C5.97835 10.8412 5.68996 10.6554 5.43986 10.4924C5.03979 10.2318 4.83247 10.1438 4.6181 10.1438C4.07208 10.1438 3.56195 10.2362 3.10165 10.4186C2.6399 10.6014 2.24016 10.8524 1.91348 11.165C1.60137 11.4637 1.32323 11.8262 1.08675 12.2426C0.858765 12.644 0.674194 13.0626 0.53833 13.487C0.407112 13.8974 0.297363 14.3461 0.212128 14.821C0.127533 15.2917 0.0703354 15.7383 0.0419769 16.1484C0.0140991 16.5494 0 16.9668 0 17.3885C0 18.4847 0.348473 19.3721 1.03564 20.0266C1.71432 20.6725 2.61218 20.9999 3.70438 20.9999H13.816C14.9079 20.9999 15.8058 20.6725 16.4846 20.0266C17.1719 19.3726 17.5204 18.4849 17.5204 17.3883C17.5202 16.9652 17.506 16.5478 17.4779 16.1479ZM15.6361 19.135C15.1876 19.5618 14.5923 19.7693 13.8159 19.7693H3.70438C2.92781 19.7693 2.33244 19.5618 1.88416 19.1352C1.44436 18.7165 1.23063 18.145 1.23063 17.3885C1.23063 16.995 1.24361 16.6065 1.26956 16.2335C1.29488 15.8676 1.34663 15.4656 1.42337 15.0384C1.49915 14.6166 1.5956 14.2207 1.71032 13.8623C1.82039 13.5186 1.97051 13.1783 2.15668 12.8505C2.33437 12.5381 2.5388 12.27 2.76439 12.0541C2.9754 11.852 3.24136 11.6867 3.55474 11.5627C3.84457 11.448 4.1703 11.3852 4.5239 11.3757C4.56699 11.3986 4.64374 11.4424 4.76807 11.5234C5.02105 11.6883 5.31264 11.8764 5.635 12.0823C5.99837 12.3139 6.46653 12.5232 7.02585 12.7037C7.59766 12.8886 8.18085 12.9825 8.75972 12.9825C9.33858 12.9825 9.92194 12.8886 10.4934 12.7039C11.0532 12.523 11.5212 12.3139 11.8851 12.0819C12.215 11.8711 12.4984 11.6885 12.7514 11.5234C12.8757 11.4425 12.9524 11.3986 12.9955 11.3757C13.3493 11.3852 13.675 11.448 13.965 11.5627C14.2782 11.6867 14.5442 11.8522 14.7552 12.0541C14.9808 12.2699 15.1852 12.5379 15.3629 12.8507C15.5492 13.1783 15.6995 13.5188 15.8094 13.8621C15.9243 14.221 16.0209 14.6167 16.0965 15.0383C16.1731 15.4662 16.225 15.8684 16.2504 16.2336V16.234C16.2765 16.6055 16.2896 16.9939 16.2898 17.3885C16.2896 18.1452 16.0759 18.7165 15.6361 19.135Z" fill="black"/>
</svg>
