<svg width="18" height="18" viewBox="0 0 18 18" fill="none" xmlns="http://www.w3.org/2000/svg">
<path d="M18 0H0V18H18V0Z" fill="#DC472E"/>
<path d="M10.3979 11.5226C10.3976 11.4554 10.3778 11.3855 10.3529 11.3227C10.3197 11.2402 10.2487 11.1991 10.1594 11.1904C10.0547 11.1801 9.97099 11.2224 9.89515 11.2895C9.86474 11.316 9.85092 11.3555 9.85092 11.3555L9.8525 13.4872V13.5397C9.8525 13.5397 9.87066 13.5642 9.87343 13.5673C9.93504 13.6341 10.0069 13.687 10.099 13.706C10.2506 13.7372 10.3577 13.674 10.3873 13.5334C10.3948 13.4982 10.3991 13.4619 10.3991 13.4259C10.3999 12.7912 10.4011 12.1569 10.3979 11.5226ZM10.3979 11.5226C10.3976 11.4554 10.3778 11.3855 10.3529 11.3227C10.3197 11.2402 10.2487 11.1991 10.1594 11.1904C10.0547 11.1801 9.97099 11.2224 9.89515 11.2895C9.86474 11.316 9.85092 11.3555 9.85092 11.3555L9.8525 13.4872V13.5397C9.8525 13.5397 9.87066 13.5642 9.87343 13.5673C9.93504 13.6341 10.0069 13.687 10.099 13.706C10.2506 13.7372 10.3577 13.674 10.3873 13.5334C10.3948 13.4982 10.3991 13.4619 10.3991 13.4259C10.3999 12.7912 10.4011 12.1569 10.3979 11.5226ZM12.7848 8.30792C10.2621 8.25381 7.73822 8.25381 5.21515 8.30792C4.3399 8.32648 3.64001 9.04217 3.64001 9.91781V13.858C3.64001 14.7341 4.3399 15.4498 5.21515 15.4683C7.73822 15.5224 10.2621 15.5224 12.7848 15.4683C13.6604 15.4498 14.3603 14.7341 14.3603 13.858V9.91781C14.3603 9.04221 13.6604 8.32648 12.7848 8.30792ZM5.95612 14.2171H5.22858V10.1043H4.47538V9.41624H6.71091V10.1027H5.95612V14.2171ZM8.55976 12.51V14.2175H7.91556V13.8272C7.89226 13.8521 7.87923 13.8655 7.86698 13.8794C7.72835 14.0358 7.57115 14.1661 7.37051 14.2352C7.27255 14.2688 7.17184 14.2803 7.06875 14.2625C6.92814 14.2392 6.83374 14.1582 6.77687 14.0302C6.72394 13.9121 6.71051 13.7858 6.71012 13.6586C6.70854 13.1886 6.70933 10.701 6.70933 10.6769H7.35194C7.35313 10.6987 7.3555 12.4843 7.35589 13.3552C7.35589 13.4026 7.35629 13.4512 7.36577 13.4974C7.38946 13.6143 7.47912 13.6645 7.59169 13.6234C7.72124 13.576 7.81998 13.4868 7.90293 13.3797C7.91517 13.3643 7.91517 13.3367 7.91517 13.3146V10.673L8.55976 10.6714C8.55976 10.6715 8.55976 11.9183 8.55976 12.51ZM11.0105 13.8762C10.9244 14.1353 10.7349 14.2672 10.4623 14.2645C10.2408 14.2625 10.061 14.1744 9.91293 14.0137C9.89634 13.9959 9.85052 13.9473 9.85052 13.9473V14.2167H9.20514V9.41581H9.85052C9.85052 9.9269 9.85052 10.9961 9.85052 10.9961C9.85052 10.9961 9.88686 10.9234 9.92004 10.8859C10.02 10.7741 10.1416 10.6876 10.2917 10.6497C10.5393 10.5877 10.8249 10.6643 10.9608 10.9538C11.041 11.1248 11.0635 11.3073 11.0635 11.493C11.0647 12.164 11.0647 12.8351 11.0639 13.5061C11.0635 13.6317 11.0504 13.7558 11.0105 13.8762ZM13.3942 13.7412C13.2824 14.0686 13.0514 14.2503 12.7125 14.3C12.5023 14.3309 12.2942 14.3265 12.0971 14.2372C11.8273 14.1156 11.6745 13.8956 11.6089 13.6156C11.5785 13.4852 11.5635 13.3486 11.5619 13.2147C11.5568 12.689 11.5592 12.1629 11.5603 11.6372C11.5607 11.3623 11.6263 11.1087 11.8147 10.8982C12.0296 10.6576 12.3045 10.568 12.6185 10.5881C12.7129 10.594 12.8092 10.6094 12.8989 10.6391C13.2042 10.7394 13.3673 10.9681 13.4313 11.2714C13.4558 11.3883 13.4649 11.5096 13.4669 11.6293C13.472 11.9097 13.4649 12.5278 13.4649 12.5278H12.229V13.4137C12.229 13.5729 12.3578 13.7017 12.517 13.7017C12.6757 13.7017 12.8045 13.5729 12.8045 13.4137V12.9583H13.4684C13.4684 12.9583 13.4783 13.4959 13.3942 13.7412ZM12.8045 11.4811C12.8045 11.3224 12.6757 11.1932 12.517 11.1932C12.3578 11.1932 12.229 11.3224 12.229 11.4811V11.9784H12.8045V11.4811ZM10.3529 11.3228C10.3197 11.2402 10.2487 11.1991 10.1594 11.1904C10.0547 11.1802 9.97099 11.2224 9.89515 11.2896C9.86474 11.316 9.85092 11.3555 9.85092 11.3555L9.8525 13.4872V13.5397C9.8525 13.5397 9.87066 13.5642 9.87343 13.5674C9.93504 13.6341 10.0069 13.6871 10.099 13.706C10.2506 13.7372 10.3577 13.674 10.3873 13.5334C10.3948 13.4983 10.3991 13.4619 10.3991 13.426C10.3999 12.7913 10.4011 12.1569 10.3979 11.5226C10.3976 11.4554 10.3778 11.3855 10.3529 11.3228Z" fill="white"/>
<path d="M12.0026 3.75183L12.0024 7.3162H11.342L11.3427 6.93327C11.2697 7.0052 11.2074 7.07238 11.1389 7.13273C11.0175 7.23969 10.88 7.31943 10.7191 7.35091C10.4721 7.39922 10.2618 7.32113 10.183 7.06535C10.1568 6.98015 10.1409 6.88832 10.1403 6.79938V3.75183H10.7957V6.47005C10.7957 6.50607 10.7986 6.54249 10.805 6.5778C10.8249 6.68981 10.9076 6.74254 11.0155 6.70514C11.147 6.65964 11.2473 6.5686 11.3324 6.46132C11.3445 6.446 11.3423 6.4174 11.3423 6.39493V3.75183H12.0026Z" fill="white"/>
<path d="M6.53982 4.37122C6.39645 3.76688 6.09607 2.49109 6.09607 2.49109H5.34448C5.34448 2.49109 5.92193 4.40618 6.18016 5.26026C6.18944 5.29115 6.19371 5.32468 6.19371 5.35703L6.19343 7.31545H6.88648L6.88621 5.35703C6.88621 5.32468 6.89047 5.29115 6.89975 5.26026C7.15799 4.40618 7.73543 2.49109 7.73543 2.49109H6.98384C6.98384 2.49109 6.68343 3.76688 6.5401 4.37122H6.53982Z" fill="white"/>
<path d="M8.64005 3.6626C8.11774 3.6626 7.69434 4.08601 7.69434 4.60831V6.4591C7.69434 6.98141 8.11774 7.40482 8.64005 7.40482C9.16236 7.40482 9.58576 6.98141 9.58576 6.4591V4.60831C9.5858 4.08601 9.16236 3.6626 8.64005 3.6626ZM8.91297 6.49647C8.91297 6.64695 8.79053 6.76935 8.64009 6.76935C8.48965 6.76935 8.36721 6.64695 8.36721 6.49647V4.57091C8.36721 4.42043 8.48965 4.29803 8.64009 4.29803C8.79053 4.29803 8.91297 4.42047 8.91297 4.57091V6.49647Z" fill="white"/>
</svg>
